<svg id="Layer_1" data-name="Layer 1" xmlns="http://www.w3.org/2000/svg" xmlns:xlink="http://www.w3.org/1999/xlink" viewBox="0 0 24 24"><defs><style>.cls-1{fill:none;}.cls-2{fill:#5e438f;}.cls-3{opacity:0.1;}.cls-4{fill:url(#linear-gradient);}.cls-5{fill:url(#linear-gradient-2);}.cls-6{fill-opacity:0.1;}.cls-7{fill:url(#linear-gradient-3);}</style><linearGradient id="linear-gradient" x1="20.949" y1="22.536" x2="2.698" y2="4.708" gradientTransform="matrix(1, 0, 0, -1, 0, 24)" gradientUnits="userSpaceOnUse"><stop offset="0" stop-color="#7252aa"/><stop offset="1" stop-color="#7252aa"/></linearGradient><linearGradient id="linear-gradient-2" x1="2.958" y1="20.646" x2="20.167" y2="1.951" gradientTransform="matrix(1, 0, 0, -1, 0, 24)" gradientUnits="userSpaceOnUse"><stop offset="0" stop-color="#ae7fe2"/><stop offset="1" stop-color="#9a70d4"/></linearGradient><linearGradient id="linear-gradient-3" x1="21.32" y1="24.25" x2="21.32" y2="0.25" gradientTransform="matrix(1, 0, 0, -1, 0, 24)" gradientUnits="userSpaceOnUse"><stop offset="0" stop-color="#d59dff"/><stop offset="1" stop-color="#c18ef1"/></linearGradient></defs><rect class="cls-1" width="24" height="24"/><path class="cls-2" d="M4.4,20.8.53,17.89.4,17.8A1,1,0,0,1,0,17V7a1,1,0,0,1,.4-.8l.13-.09L4.4,3.2A1,1,0,0,0,4,4V20a1,1,0,0,0,.4.8Z"/><path class="cls-3" d="M1.358,17.345a.459.459,0,0,1-.161.116.483.483,0,0,1-.188.039.483.483,0,0,1-.261-.061l-.258.423.04.028L4.4,20.8A1,1,0,0,1,4,20V14.393Z"/><path class="cls-4" d="M23.55,3.67,18.64.23,18.57.18a.035.035,0,0,0-.02-.01.986.986,0,0,0-1.28.15c-.01.01-.01.01-.02.01l-.01.02L10.36,8.04,6.82,12,4,15.15l-2.24,2.5-.01.02c-.01,0-.01,0-.02.01a.966.966,0,0,1-.331.238A.98.98,0,0,1,1,18a1.11,1.11,0,0,1-.47-.11L4.4,20.8A.984.984,0,0,0,5,21a1,1,0,0,0,.67-.26.021.021,0,0,0,.02-.02c.01-.01.02-.01.02-.02l4.65-4.74L14.25,12,19,7.15,22.29,3.8c0-.01.01-.01.02-.02a.025.025,0,0,1,.006-.014.035.035,0,0,1,.014-.006A1,1,0,0,1,23,3.5.973.973,0,0,1,23.55,3.67Z"/><path class="cls-3" d="M10.694,7.667l-.334.373L6.82,12l-.338.378,3.526,3.941.352-.359L14.25,12l.348-.355ZM.489,6.138l.257.423A.617.617,0,0,1,1,6.5a1.065,1.065,0,0,1,.2.04.538.538,0,0,1,.187.143L4,9.605V4a1,1,0,0,1,.4-.8L.53,6.11Z"/><path class="cls-5" d="M23.55,20.33l-4.91,3.44-.07.05a.03.03,0,0,1-.02.01.986.986,0,0,1-1.28-.15c-.01-.01-.01-.01-.02-.01l-.01-.02-6.88-7.69L6.82,12,4,8.85,1.76,6.35l-.01-.02c-.01,0-.01,0-.02-.01A.966.966,0,0,0,1.4,6.082.98.98,0,0,0,1,6a1.125,1.125,0,0,0-.47.11L4.4,3.2A.984.984,0,0,1,5,3a1,1,0,0,1,.67.26.035.035,0,0,1,.014.006.025.025,0,0,1,.006.014c.01.01.02.01.02.02l4.65,4.74L14.25,12,19,16.85l3.29,3.35c0,.01.01.01.02.02a.021.021,0,0,0,.02.02,1,1,0,0,0,.67.26A.966.966,0,0,0,23.55,20.33Z"/><path class="cls-6" d="M22.591,20.4,19.5,22.558v-5.2L19,16.85l-.5-.51V23a.494.494,0,0,1-.046.21.524.524,0,0,1-.133.173l.3.4.017-.012,4.91-3.44a.966.966,0,0,1-.55.17A.98.98,0,0,1,22.591,20.4ZM18.5,1V7.661L19,7.15l.5-.509v-5.2L22.587,3.6a.94.94,0,0,1,.963.069L18.64.23,18.624.218l-.3.4a.5.5,0,0,1,.132.172A.484.484,0,0,1,18.5,1Z"/><path class="cls-7" d="M24,4.5v15a.984.984,0,0,1-.094.426.994.994,0,0,1-.266.344.425.425,0,0,1-.07.05l-.02.01-4.91,3.44a.994.994,0,0,0,.266-.344A.984.984,0,0,0,19,23V1a.976.976,0,0,0-.094-.425A1,1,0,0,0,18.64.23l4.91,3.44.02.01a.425.425,0,0,1,.07.05,1,1,0,0,1,.266.345A.976.976,0,0,1,24,4.5Z"/></svg>